<svg width="79" height="47" viewBox="0 0 79 47" fill="none" xmlns="http://www.w3.org/2000/svg">
<path d="M7 1L17.5 15M1 5L12.5 19.5" stroke="#333333"/>
<path d="M39.4648 16.2734V19.4839" stroke="#333333"/>
<path d="M38.8063 16.9614C40.3758 17.1994 41.9805 16.9666 43.4177 16.2925C44.8549 15.6184 46.0599 14.5333 46.8804 13.1744C47.7008 11.8155 48.0999 10.2438 48.0271 8.65807C47.9544 7.07234 47.413 5.5438 46.4715 4.26574C45.53 2.98769 44.2307 2.01752 42.7378 1.47793C41.2449 0.938332 39.6256 0.853544 38.0845 1.23428C36.5434 1.61503 35.1499 2.44419 34.0801 3.61694C33.0102 4.78968 32.3122 6.25333 32.0742 7.82279L32.9789 7.95996C33.1897 6.56942 33.8082 5.27263 34.756 4.23358C35.7039 3.19453 36.9386 2.45989 38.304 2.12255C39.6693 1.78522 41.1041 1.86034 42.4268 2.33842C43.7495 2.8165 44.9007 3.67607 45.7348 4.80842C46.569 5.94078 47.0487 7.29506 47.1131 8.70002C47.1776 10.105 46.824 11.4975 46.0971 12.7015C45.3702 13.9055 44.3025 14.8669 43.0292 15.4641C41.7558 16.0614 40.334 16.2676 38.9435 16.0567L38.8063 16.9614Z" fill="#333333"/>
<path d="M37.9947 20.1359C38.8719 19.4811 40.0732 19.4731 40.959 20.1163L70.756 41.7497C72.7161 43.1728 71.7094 46.2727 69.2872 46.2727H10.5096C8.10417 46.2727 7.08651 43.2082 9.01408 41.7694L37.9947 20.1359Z" stroke="#333333"/>
</svg>
