<svg width="77" height="52" viewBox="0 0 77 52" fill="none" xmlns="http://www.w3.org/2000/svg">
<path d="M55.9631 11.3639L71.4669 3.24721M58.9481 17.9282L75.106 8.90467" stroke="#333333"/>
<path d="M25 2.78241L30.9428 9.93521L31.1293 10.1598L31.4166 10.1077L40.5668 8.44825L40.5215 17.7476L40.5201 18.0395L40.7736 18.1842L48.8497 22.7947L42.8375 29.8892L42.6488 30.112L42.7499 30.3858L45.973 39.1088L36.8071 40.679L36.5194 40.7283L36.4209 41.0031L33.2829 49.7571L25.2521 45.0682L25 44.921L24.7479 45.0682L16.7171 49.7571L13.5791 41.0031L13.4806 40.7283L13.1929 40.679L4.02695 39.1088L7.25006 30.3858L7.35124 30.112L7.16251 29.8892L1.15033 22.7947L9.22642 18.1842L9.47995 18.0395L9.47852 17.7476L9.43323 8.44825L18.5834 10.1077L18.8707 10.1598L19.0572 9.93521L25 2.78241Z" stroke="#333333"/>
<path d="M33.334 17.833L15.834 36.1663" stroke="#333333"/>
<circle cx="17.4997" cy="21.1667" r="3.66667" stroke="#333333"/>
<circle cx="30.8337" cy="34.4997" r="3.66667" stroke="#333333"/>
</svg>
