<svg width="62" height="71" viewBox="0 0 62 71" fill="none" xmlns="http://www.w3.org/2000/svg">
<path fill-rule="evenodd" clip-rule="evenodd" d="M4.75201 41.7499H10.7545V43.2499H3.31031L3.27248 42.5398L4.02141 42.4999C3.27248 42.5398 3.27245 42.5394 3.27242 42.5388L3.27233 42.537L3.27203 42.531L3.27102 42.5099C3.27018 42.4918 3.26903 42.4656 3.26769 42.4316C3.26503 42.3636 3.26163 42.2643 3.25853 42.1358C3.25232 41.8788 3.24728 41.505 3.25163 41.0312C3.26033 40.0838 3.30655 38.735 3.45626 37.1196C3.75528 33.8934 4.46913 29.5817 6.13574 25.2753C7.80256 20.9684 10.435 16.6353 14.589 13.4141C18.7536 10.1846 24.393 8.11576 31.9879 8.25678C48.8867 8.57057 61.52 22.9328 61.52 39.744C61.52 45.2682 61.1503 49.7279 59.9643 53.6149C58.7721 57.5222 56.7663 60.8158 53.5517 64.0303C51.8775 65.7046 49.6068 66.911 47.1949 67.7875C44.777 68.6663 42.171 69.2301 39.7828 69.5928C37.3921 69.9558 35.2029 70.1199 33.6118 70.1934C32.8157 70.2302 32.1679 70.2444 31.7178 70.2493C31.4927 70.2518 31.317 70.252 31.1967 70.2515C31.162 70.2514 31.1319 70.2512 31.1066 70.251C31.0881 70.2508 31.0721 70.2507 31.0587 70.2505L31.0224 70.2501L31.0099 70.2499C31.0096 70.2499 31.0085 70.2499 31.0214 69.5C31.0343 68.7501 31.0342 68.7501 31.0342 68.7501L31.036 68.7501L31.0433 68.7502L31.0747 68.7506C31.103 68.7509 31.1459 68.7513 31.2025 68.7515C31.3157 68.7519 31.484 68.7518 31.7013 68.7494C32.1359 68.7446 32.766 68.7309 33.5426 68.695C35.0968 68.6232 37.2319 68.4629 39.5575 68.1098C41.8856 67.7562 44.3877 67.2118 46.6826 66.3778C48.9835 65.5415 51.0303 64.4304 52.4911 62.9697C55.5466 59.9142 57.415 56.8301 58.5296 53.1771C59.5987 49.6731 59.9843 45.6142 60.0176 40.494H53.0214V38.994H60.0113C59.643 23.2376 47.7032 10.0488 31.96 9.75653C24.6716 9.62119 19.3752 11.6008 15.5082 14.5995C11.6304 17.6065 9.13511 21.6812 7.53463 25.8167C5.93393 29.9527 5.2409 34.1179 4.94986 37.2581C4.80455 38.8259 4.75994 40.1326 4.75157 41.0449C4.74908 41.3161 4.74979 41.5522 4.75201 41.7499Z" fill="#494949"/>
<path fill-rule="evenodd" clip-rule="evenodd" d="M36.847 67.6665C37.9201 66.9781 38.5 66.038 38.5 64.7706C38.5 64.1038 38.342 63.6736 38.135 63.3722C37.9222 63.0625 37.5808 62.7781 37.0418 62.5358C35.9055 62.0249 34.1834 61.8262 32 61.8262C29.8166 61.8262 28.0945 62.0249 26.9582 62.5358C26.4192 62.7781 26.0778 63.0625 25.865 63.3722C25.658 63.6736 25.5 64.1038 25.5 64.7706C25.5 66.038 26.0799 66.9781 27.153 67.6665C28.2844 68.3923 29.9742 68.8262 32 68.8262C34.0258 68.8262 35.7156 68.3923 36.847 67.6665ZM32 70.3262C36.4183 70.3262 40 68.4525 40 64.7706C40 61.0887 36.4183 60.3262 32 60.3262C27.5817 60.3262 24 61.0887 24 64.7706C24 68.4525 27.5817 70.3262 32 70.3262Z" fill="#494949"/>
<path fill-rule="evenodd" clip-rule="evenodd" d="M22.1535 42.3012C22.1234 41.2875 22.091 40.1964 22.091 39.0961C22.091 37.9957 22.1234 36.9046 22.1535 35.891C22.1667 35.4448 22.1795 35.0136 22.1889 34.6033C22.2206 33.2205 22.2143 32.0598 22.0936 31.1174C21.9702 30.1537 21.7498 29.6264 21.5194 29.3507C21.3555 29.1546 21.0776 28.9482 20.3555 28.9482C18.7524 28.9482 16.4419 30.0177 14.4686 31.9882C12.5272 33.9269 11.1783 36.4785 11.1783 39.0961C11.1783 41.7137 12.5272 44.2653 14.4686 46.2039C16.4419 48.1744 18.7524 49.2439 20.3555 49.2439C21.0776 49.2439 21.3555 49.0375 21.5194 48.8414C21.7498 48.5658 21.9702 48.0385 22.0936 47.0748C22.2143 46.1323 22.2206 44.9717 22.1889 43.5889C22.1795 43.1785 22.1667 42.7474 22.1535 42.3012ZM23.6521 42.2292C23.6223 41.2259 23.591 40.1737 23.591 39.0961C23.591 38.0184 23.6223 36.9663 23.6521 35.9629C23.7953 31.1432 23.9051 27.4482 20.3555 27.4482C16.0669 27.4482 9.67831 32.8418 9.67831 39.0961C9.67831 45.3503 16.0669 50.7439 20.3555 50.7439C23.9051 50.7439 23.7953 47.0489 23.6521 42.2292Z" fill="#494949"/>
<path fill-rule="evenodd" clip-rule="evenodd" d="M41.291 35.8912C41.321 36.9048 41.3534 37.9959 41.3534 39.0963C41.3534 40.1967 41.321 41.2878 41.291 42.3014C41.2777 42.7476 41.2649 43.1788 41.2555 43.5891C41.2238 44.9719 41.2301 46.1325 41.3508 47.075C41.4742 48.0387 41.6946 48.566 41.925 48.8417C42.0889 49.0377 42.3668 49.2441 43.089 49.2441C44.6921 49.2441 47.0025 48.1747 48.9759 46.2041C50.9173 44.2655 52.2661 41.7139 52.2661 39.0963C52.2661 36.4787 50.9173 33.9271 48.9759 31.9885C47.0025 30.018 44.6921 28.9485 43.089 28.9485C42.3668 28.9485 42.0889 29.1549 41.925 29.351C41.6946 29.6266 41.4742 30.1539 41.3508 31.1176C41.2301 32.0601 41.2238 33.2207 41.2555 34.6035C41.2649 35.0138 41.2777 35.445 41.291 35.8912ZM39.7924 35.9631C39.8222 36.9665 39.8534 38.0186 39.8534 39.0963C39.8534 40.174 39.8222 41.2261 39.7924 42.2295C39.6491 47.0491 39.5393 50.7441 43.089 50.7441C47.3776 50.7441 53.7661 45.3505 53.7661 39.0963C53.7661 32.8421 47.3776 27.4485 43.089 27.4485C39.5393 27.4485 39.6491 31.1435 39.7924 35.9631Z" fill="#494949"/>
<path fill-rule="evenodd" clip-rule="evenodd" d="M11.5709 1.60884L1.4376 8.88884L0.562408 7.67062L10.6957 0.390625L11.5709 1.60884ZM17.4362 3.16983L1.43622 14.6098L0.563786 13.3896L16.5638 1.94964L17.4362 3.16983Z" fill="#494949"/>
</svg>
