<svg width="25" height="29" viewBox="0 0 25 29" fill="none" xmlns="http://www.w3.org/2000/svg">
<path d="M23.9999 16.3888C23.9999 10.0593 19.2473 4.6783 12.9189 4.56079C1.46444 4.3481 2.16254 17.4493 2.16254 17.4493H4.7535M23.9999 16.3888C23.9999 20.6219 23.4309 23.1175 21.0181 25.5303C18.6054 27.943 12.5524 27.8391 12.5524 27.8391M23.9999 16.3888H21.0181" stroke="#494949" stroke-width="1.5"/>
<path d="M15.2575 26.0195C15.2575 26.4411 15.0707 26.7512 14.7009 26.9884C14.302 27.2443 13.6875 27.4073 12.9291 27.4073C12.1706 27.4073 11.5561 27.2443 11.1572 26.9884C10.7874 26.7512 10.6006 26.4411 10.6006 26.0195C10.6006 25.7921 10.6538 25.662 10.7107 25.5792C10.7705 25.4922 10.8737 25.4008 11.0598 25.3171C11.4612 25.1366 12.0918 25.0592 12.9291 25.0592C13.7663 25.0592 14.3969 25.1366 14.7983 25.3171C14.9844 25.4008 15.0877 25.4922 15.1474 25.5792C15.2043 25.662 15.2575 25.7921 15.2575 26.0195Z" stroke="#494949" stroke-width="1.5"/>
<path d="M8.94332 16.1398C8.94332 16.5658 8.95592 16.9902 8.96753 17.3814C8.9726 17.5524 8.97749 17.717 8.98105 17.8726C8.99323 18.4044 8.99037 18.8396 8.94573 19.1881C8.89974 19.5473 8.8207 19.7107 8.76359 19.7791C8.73973 19.8076 8.68584 19.872 8.44827 19.872C7.89371 19.872 7.04596 19.4925 6.30503 18.7527C5.58005 18.0287 5.0896 17.0884 5.0896 16.1398C5.0896 15.1912 5.58005 14.2508 6.30503 13.5269C7.04596 12.787 7.89371 12.4076 8.44827 12.4076C8.68584 12.4076 8.73973 12.472 8.76359 12.5005C8.8207 12.5688 8.89974 12.7323 8.94573 13.0915C8.99037 13.44 8.99323 13.8751 8.98105 14.4069C8.97749 14.5626 8.9726 14.7272 8.96753 14.8981C8.95592 15.2893 8.94332 15.7137 8.94332 16.1398Z" stroke="#494949" stroke-width="1.5"/>
<path d="M16.7012 16.1396C16.7012 15.7136 16.6886 15.2892 16.677 14.898C16.6719 14.727 16.667 14.5624 16.6635 14.4068C16.6513 13.875 16.6542 13.4399 16.6988 13.0913C16.7448 12.7322 16.8238 12.5687 16.8809 12.5004C16.9048 12.4718 16.9587 12.4075 17.1963 12.4075C17.7508 12.4075 18.5986 12.7869 19.3395 13.5268C20.0645 14.2507 20.5549 15.191 20.5549 16.1396C20.5549 17.0882 20.0645 18.0286 19.3395 18.7525C18.5986 19.4924 17.7508 19.8718 17.1963 19.8718C16.9587 19.8718 16.9048 19.8075 16.8809 19.7789C16.8238 19.7106 16.7448 19.5471 16.6988 19.188C16.6542 18.8394 16.6513 18.4043 16.6635 17.8725C16.667 17.7168 16.6719 17.5522 16.677 17.3813C16.6886 16.9901 16.7012 16.5657 16.7012 16.1396Z" stroke="#494949" stroke-width="1.5"/>
<path d="M1 6.48224L7.15693 2.08004M1 4.28114L4.89939 1.47974" stroke="#494949" stroke-width="1.5"/>
</svg>
