<svg width="79" height="89" viewBox="0 0 79 89" fill="none" xmlns="http://www.w3.org/2000/svg">
<path fill-rule="evenodd" clip-rule="evenodd" d="M13.9597 15.52L0.959747 2.01995L2.04023 0.979492L15.0402 14.4795L13.9597 15.52ZM12.4585 22.0187L0.958496 10.0187L2.04148 8.98079L13.5415 20.9808L12.4585 22.0187ZM18.7719 24.2497H68.6372L78.8824 45.9779L43.7057 88.177L9.12706 45.9832L18.7719 24.2497ZM19.2329 26.9089L26.7103 45.1151H11.1534L19.2329 26.9089ZM11.5843 46.6151L41.3268 82.9077L27.3147 46.6151H11.5843ZM28.9226 46.6151L43.7253 84.9554L59.1633 46.6151H28.9226ZM60.7803 46.6151L46.187 82.8577L76.3984 46.6151H60.7803ZM76.8172 45.1151H61.3591L68.2377 26.9196L76.8172 45.1151ZM67.0764 25.7497H45.2636L60.0396 44.3637L67.0764 25.7497ZM58.7209 45.1151L43.7231 26.2217L29.3425 45.1151H58.7209ZM28.0254 44.3689L42.1972 25.7497H20.3784L28.0254 44.3689Z" fill="#494949"/>
</svg>
