<svg width="75" height="63" viewBox="0 0 75 63" fill="none" xmlns="http://www.w3.org/2000/svg">
<path fill-rule="evenodd" clip-rule="evenodd" d="M42.218 12.0403L39.2144 8.43585V62.502L54.8335 58.2969L47.6246 12.0403H42.218ZM46.3403 13.5403H41.5155L40.7144 12.5789V60.5448L53.1442 57.1983L46.3403 13.5403ZM5.57318 17.4469L0.166565 55.2932L38.0129 62.502V7.23438L5.57318 17.4469ZM36.5129 9.27917L6.92453 18.594L1.85401 54.0876L36.5129 60.6893V9.27917Z" fill="#494949"/>
<path fill-rule="evenodd" clip-rule="evenodd" d="M14.7167 17.6046L13.9835 17.4467C13.2503 17.2889 13.2503 17.2887 13.2504 17.2884L13.2512 17.2844L13.2537 17.2732L13.263 17.2309C13.2711 17.1941 13.2832 17.1401 13.2992 17.0703C13.331 16.9307 13.3784 16.7275 13.441 16.4705C13.5661 15.9567 13.7522 15.227 13.9967 14.3597C14.485 12.6281 15.2102 10.335 16.1546 8.11252C17.0927 5.90459 18.2743 3.70039 19.6996 2.19773C21.1342 0.685171 22.9586 -0.244076 25.0543 0.522427C26.2537 0.961095 27.2416 1.58817 28.0512 2.33137C28.5921 2.19486 29.1633 2.17163 29.7552 2.2947C30.6513 2.48097 31.465 2.97545 32.1602 3.55348C32.8603 4.13557 33.4823 4.83763 33.9956 5.5015C34.5106 6.16767 34.9282 6.81134 35.2169 7.28752C35.3616 7.52618 35.4747 7.72421 35.5523 7.86381C35.5911 7.93364 35.6211 7.98895 35.6418 8.02752L35.6657 8.07258L35.6723 8.0852L35.6743 8.08895L35.6749 8.09016C35.675 8.09034 35.6753 8.09094 35.0092 8.43562C34.3431 8.78029 34.3432 8.78041 34.3432 8.78051L34.3425 8.77907L34.3383 8.77108L34.3194 8.73562C34.3023 8.7036 34.2761 8.65522 34.2413 8.59265C34.1717 8.46743 34.068 8.28581 33.9342 8.06508C33.6659 7.62248 33.28 7.02845 32.8088 6.41894C32.3359 5.80712 31.7889 5.19552 31.2012 4.70689C30.6086 4.2142 30.0157 3.88091 29.4499 3.7633C29.3973 3.75235 29.3449 3.74328 29.2928 3.73605C30.5384 5.47081 31.1097 7.48071 31.3695 9.12093C31.5288 10.1265 31.5746 11.015 31.5806 11.6534C31.5836 11.9731 31.5767 12.2315 31.5688 12.4121C31.5648 12.5025 31.5607 12.5735 31.5574 12.6232C31.5557 12.648 31.5543 12.6675 31.5532 12.6814L31.5519 12.698L31.5515 12.7031L31.5513 12.7048C31.5513 12.7051 31.5512 12.706 30.8041 12.6408C30.0569 12.5755 30.0569 12.5757 30.0569 12.5759L30.0577 12.566L30.0607 12.5237C30.0632 12.4849 30.0668 12.4252 30.0702 12.3468C30.077 12.1899 30.0834 11.9581 30.0806 11.6675C30.0752 11.0853 30.0333 10.2726 29.888 9.35562C29.6179 7.65086 29.0024 5.65895 27.6712 4.09558C27.0755 4.43754 26.4876 4.99767 25.9234 5.72243C25.2258 6.61853 24.6117 7.70448 24.1003 8.77093C23.5905 9.83399 23.1925 10.857 22.9217 11.6157C22.7865 11.9944 22.6837 12.3056 22.6149 12.521C22.5805 12.6286 22.5547 12.7122 22.5377 12.7682L22.5188 12.8311L22.5144 12.8461L22.5134 12.8494C22.5135 12.8493 22.5133 12.8497 21.793 12.6408C21.0727 12.4318 21.0728 12.4316 21.0728 12.4314L21.0735 12.4292L21.0751 12.4238L21.0808 12.4043L21.1025 12.3322C21.1214 12.2699 21.1493 12.1795 21.186 12.0648C21.2592 11.8354 21.3675 11.508 21.509 11.1115C21.7916 10.3197 22.2091 9.24567 22.7478 8.12234C23.2848 7.0024 23.9522 5.81264 24.7398 4.80097C25.2674 4.12327 25.8714 3.49625 26.5523 3.02907C25.9817 2.59065 25.3165 2.2155 24.5391 1.93116C23.2411 1.45641 22.0171 1.93404 20.7879 3.22998C19.5493 4.53583 18.4518 6.54177 17.5351 8.69913C16.6246 10.842 15.9191 13.0693 15.4404 14.7668C15.2015 15.6141 15.02 16.3262 14.8984 16.8254C14.8377 17.0749 14.7919 17.2711 14.7615 17.4043C14.7463 17.4708 14.735 17.5216 14.7275 17.5554L14.7191 17.5932L14.7172 17.6022L14.7167 17.6046ZM30.0569 12.5759C30.0569 12.576 30.0569 12.576 30.0569 12.5759V12.5759Z" fill="#494949"/>
<path fill-rule="evenodd" clip-rule="evenodd" d="M66.4412 35.6067L55.4412 43.6067L54.5589 42.3936L65.5589 34.3936L66.4412 35.6067Z" fill="#494949"/>
<path fill-rule="evenodd" clip-rule="evenodd" d="M74.6567 36.6114L56.4344 49.5589L55.5656 48.3361L73.7879 35.3887L74.6567 36.6114Z" fill="#494949"/>
</svg>
