<svg width="143" height="51" viewBox="0 0 143 51" fill="none" xmlns="http://www.w3.org/2000/svg">
<path d="M62.4397 22.652V23.548H59.9477V26.04H59.0517V23.548H56.5597V22.652H59.0517V20.16H59.9477V22.652H62.4397Z" fill="#333333"/>
<path d="M121.963 41.3639L137.467 33.2472M124.948 47.9282L141.106 38.9047" stroke="#333333"/>
<path fill-rule="evenodd" clip-rule="evenodd" d="M32.7964 8.97405L30.5104 6.23082V47.3793L42.3977 44.1789L36.9112 8.97405H32.7964ZM35.9338 10.1157H32.2617L31.652 9.38401V45.8897L41.112 43.3428L35.9338 10.1157ZM4.90684 13.0889L0.791992 41.8928L29.5959 47.3793V5.31641L4.90684 13.0889ZM28.4543 6.87265L5.93532 13.962L2.07627 40.9753L28.4543 45.9997V6.87265Z" fill="#494949"/>
<path fill-rule="evenodd" clip-rule="evenodd" d="M11.866 13.2097L11.3079 13.0895C10.7499 12.9694 10.75 12.9692 10.75 12.969L10.7507 12.966L10.7525 12.9574L10.7596 12.9253C10.7658 12.8972 10.775 12.8562 10.7871 12.803C10.8114 12.6968 10.8475 12.5421 10.8951 12.3466C10.9903 11.9555 11.1319 11.4001 11.318 10.7401C11.6896 9.42219 12.2416 7.67693 12.9603 5.98547C13.6743 4.30507 14.5736 2.6275 15.6583 1.48386C16.7502 0.332685 18.1387 -0.374543 19.7337 0.208824C20.6465 0.542684 21.3984 1.01994 22.0146 1.58557C22.4263 1.48168 22.8609 1.46399 23.3115 1.55766C23.9934 1.69943 24.6127 2.07576 25.1418 2.51568C25.6747 2.9587 26.1481 3.49303 26.5387 3.99828C26.9306 4.50529 27.2485 4.99517 27.4682 5.35757C27.5783 5.53922 27.6644 5.68993 27.7235 5.79618C27.753 5.84933 27.7759 5.89142 27.7916 5.92078L27.8098 5.95507L27.8148 5.96468L27.8163 5.96752L27.8168 5.96845C27.8169 5.96859 27.8171 5.96904 27.3101 6.23137C26.8032 6.49369 26.8032 6.49378 26.8033 6.49386L26.8027 6.49276L26.7995 6.48668L26.7852 6.4597C26.7721 6.43533 26.7522 6.3985 26.7257 6.35088C26.6727 6.25558 26.5938 6.11735 26.492 5.94936C26.2878 5.61251 25.9941 5.16041 25.6355 4.69652C25.2755 4.23088 24.8593 3.7654 24.412 3.39352C23.961 3.01855 23.5097 2.76488 23.0791 2.67538C23.039 2.66704 22.9992 2.66014 22.9595 2.65464C23.9075 3.97493 24.3423 5.50461 24.5401 6.75294C24.6613 7.51823 24.6961 8.19446 24.7007 8.68034C24.703 8.92367 24.6977 9.12033 24.6917 9.25781C24.6887 9.32658 24.6855 9.38063 24.683 9.4184C24.6818 9.43729 24.6807 9.45212 24.6799 9.4627L24.6789 9.47534L24.6785 9.47923L24.6784 9.48055C24.6784 9.48077 24.6783 9.48147 24.1097 9.43181C23.5411 9.38214 23.541 9.3823 23.541 9.38245L23.5416 9.3749L23.5439 9.34269C23.5459 9.31315 23.5486 9.26777 23.5512 9.20809C23.5564 9.08865 23.5612 8.91226 23.5591 8.6911C23.555 8.248 23.5231 7.62945 23.4125 6.93156C23.207 5.63411 22.7385 4.11811 21.7254 2.92827C21.272 3.18853 20.8246 3.61483 20.3951 4.16643C19.8642 4.84842 19.3968 5.67491 19.0076 6.48657C18.6196 7.29563 18.3167 8.07422 18.1106 8.65165C18.0078 8.93986 17.9295 9.17672 17.8771 9.34064C17.851 9.42257 17.8313 9.4862 17.8184 9.52882L17.804 9.57664L17.8006 9.58808L17.7999 9.59057C17.7999 9.59051 17.7998 9.59086 17.2516 9.43181C16.7034 9.27275 16.7035 9.27263 16.7035 9.27248L16.704 9.27082L16.7052 9.26667L16.7096 9.25184L16.7261 9.19697C16.7405 9.14953 16.7617 9.08078 16.7896 8.99346C16.8453 8.81887 16.9277 8.56971 17.0354 8.26791C17.2505 7.66532 17.5683 6.84788 17.9782 5.99294C18.387 5.14058 18.8949 4.23508 19.4943 3.46512C19.8959 2.94934 20.3556 2.47213 20.8738 2.11657C20.4395 1.7829 19.9333 1.49739 19.3416 1.28098C18.3537 0.91966 17.4221 1.28317 16.4866 2.26948C15.544 3.26333 14.7087 4.79 14.011 6.43192C13.318 8.06279 12.7811 9.75793 12.4168 11.0499C12.235 11.6948 12.0968 12.2367 12.0043 12.6166C11.9581 12.8066 11.9232 12.9559 11.9001 13.0572C11.8885 13.1079 11.8799 13.1465 11.8742 13.1722L11.8679 13.201L11.8664 13.2079L11.866 13.2097ZM23.541 9.38245C23.541 9.38254 23.541 9.38248 23.541 9.38245V9.38245Z" fill="#494949"/>
<path fill-rule="evenodd" clip-rule="evenodd" d="M105.607 9.23968L103.321 6.49644V47.6449L115.208 44.4445L109.722 9.23968H105.607ZM108.744 10.3813H105.072L104.463 9.64964V46.1553L113.923 43.6084L108.744 10.3813ZM77.7174 13.3545L73.6025 42.1585L102.406 47.6449V5.58203L77.7174 13.3545ZM101.265 7.13828L78.7459 14.2276L74.8868 41.241L101.265 46.2654V7.13828Z" fill="#494949"/>
<path fill-rule="evenodd" clip-rule="evenodd" d="M84.6765 13.4753L84.1185 13.3551C83.5605 13.235 83.5605 13.2349 83.5605 13.2347L83.5612 13.2316L83.5631 13.2231L83.5702 13.1909C83.5764 13.1628 83.5856 13.1218 83.5977 13.0687C83.6219 12.9624 83.658 12.8078 83.7056 12.6122C83.8009 12.2211 83.9425 11.6657 84.1286 11.0057C84.5002 9.68782 85.0521 7.94255 85.7709 6.25109C86.4849 4.57069 87.3842 2.89312 88.4689 1.74948C89.5607 0.59831 90.9493 -0.108918 92.5443 0.474449C93.4571 0.808309 94.209 1.28556 94.8251 1.85119C95.2368 1.7473 95.6715 1.72962 96.122 1.82328C96.804 1.96505 97.4233 2.34138 97.9524 2.78131C98.4852 3.22433 98.9586 3.75865 99.3492 4.2639C99.7412 4.77091 100.059 5.26079 100.279 5.6232C100.389 5.80484 100.475 5.95556 100.534 6.0618C100.564 6.11495 100.586 6.15705 100.602 6.1864L100.62 6.2207L100.625 6.2303L100.627 6.23315L100.627 6.23408C100.627 6.23421 100.628 6.23467 100.121 6.49699C99.6137 6.75931 99.6138 6.75941 99.6138 6.75949L99.6132 6.75838L99.6101 6.7523L99.5957 6.72532C99.5827 6.70095 99.5627 6.66413 99.5362 6.6165C99.4833 6.52121 99.4043 6.38298 99.3025 6.21499C99.0983 5.87813 98.8047 5.42603 98.446 4.96215C98.0861 4.49651 97.6698 4.03103 97.2225 3.65915C96.7715 3.28417 96.3202 3.03051 95.8897 2.941C95.8496 2.93267 95.8097 2.92577 95.77 2.92026C96.7181 4.24055 97.1529 5.77023 97.3506 7.01857C97.4718 7.78385 97.5067 8.46008 97.5112 8.94596C97.5135 9.18929 97.5083 9.38595 97.5023 9.52343C97.4993 9.5922 97.4961 9.64626 97.4936 9.68403C97.4923 9.70292 97.4912 9.71775 97.4904 9.72832L97.4894 9.74097L97.4891 9.74485L97.489 9.74618C97.489 9.74639 97.4889 9.74709 96.9202 9.69743C96.3516 9.64777 96.3516 9.64793 96.3516 9.64807L96.3522 9.64053L96.3545 9.60832C96.3564 9.57878 96.3591 9.5334 96.3617 9.47371C96.3669 9.35427 96.3718 9.17789 96.3697 8.95673C96.3655 8.51362 96.3336 7.89508 96.2231 7.19719C96.0175 5.89973 95.5491 4.38374 94.5359 3.19389C94.0825 3.45415 93.6351 3.88045 93.2057 4.43205C92.6747 5.11405 92.2074 5.94054 91.8182 6.75219C91.4302 7.56126 91.1273 8.33985 90.9212 8.91728C90.8183 9.20549 90.74 9.44234 90.6877 9.60626C90.6615 9.6882 90.6419 9.75183 90.6289 9.79445L90.6146 9.84226L90.6112 9.8537L90.6105 9.85619C90.6105 9.85614 90.6104 9.85648 90.0622 9.69743C89.514 9.53838 89.514 9.53825 89.514 9.5381L89.5145 9.53644L89.5157 9.53229L89.5201 9.51746L89.5366 9.46259C89.551 9.41515 89.5723 9.3464 89.6001 9.25908C89.6559 9.0845 89.7383 8.83534 89.846 8.53353C90.0611 7.93094 90.3788 7.1135 90.7888 6.25856C91.1975 5.4062 91.7054 4.5007 92.3049 3.73075C92.7064 3.21497 93.1661 2.73775 93.6843 2.3822C93.25 2.04852 92.7438 1.76301 92.1521 1.5466C91.1643 1.18529 90.2327 1.54879 89.2972 2.53511C88.3545 3.52895 87.5192 5.05563 86.8216 6.69755C86.1286 8.32842 85.5917 10.0236 85.2273 11.3155C85.0455 11.9604 84.9074 12.5023 84.8148 12.8823C84.7686 13.0722 84.7338 13.2215 84.7106 13.3228C84.6991 13.3735 84.6904 13.4121 84.6847 13.4379L84.6784 13.4666L84.6769 13.4735L84.6765 13.4753ZM96.3516 9.64807C96.3516 9.64817 96.3516 9.64811 96.3516 9.64807V9.64807Z" fill="#494949"/>
</svg>
