<svg width="90" height="57" viewBox="0 0 90 57" fill="none" xmlns="http://www.w3.org/2000/svg">
<path fill-rule="evenodd" clip-rule="evenodd" d="M20.75 0.75H65.25V9.75H72.8271L86.25 24.2055V37.25H89.25V45.75H82.7472C82.7491 45.8331 82.75 45.9164 82.75 46C82.75 51.9371 77.9371 56.75 72 56.75C66.063 56.75 61.25 51.9371 61.25 46C61.25 45.9164 61.251 45.8331 61.2529 45.75H48.7472C48.7491 45.8331 48.75 45.9164 48.75 46C48.75 51.9371 43.9371 56.75 38 56.75C32.063 56.75 27.25 51.9371 27.25 46C27.25 45.9164 27.251 45.8331 27.2529 45.75H20.75V0.75ZM28.7533 45.75H29V44.25H28.9153C29.7333 39.9781 33.4897 36.75 38 36.75C43.1087 36.75 47.25 40.8914 47.25 46C47.25 51.1086 43.1087 55.25 38 55.25C32.8914 55.25 28.75 51.1086 28.75 46C28.75 45.9164 28.7511 45.8331 28.7533 45.75ZM27.3917 44.25H22.25V2.25H63.75V11.25H72.173L84.75 24.7945V38.75H87.75V44.25H82.6083C81.7725 39.1453 77.3412 35.25 72 35.25C66.6589 35.25 62.2275 39.1453 61.3918 44.25H48.6083C47.7726 39.1453 43.3412 35.25 38 35.25C32.6589 35.25 28.2275 39.1453 27.3917 44.25ZM62.7533 45.75H63V44.25H62.9153C63.7333 39.9781 67.4897 36.75 72 36.75C77.1087 36.75 81.25 40.8914 81.25 46C81.25 51.1086 77.1087 55.25 72 55.25C66.8914 55.25 62.75 51.1086 62.75 46C62.75 45.9164 62.7511 45.8331 62.7533 45.75ZM63.75 15.25H69.8005L81.25 26.1791V29.25H63.75V15.25ZM65.25 16.75V27.75H79.75V26.8209L69.1995 16.75H65.25ZM1.45561 32.4042L18.4556 45.4042L17.5444 46.5958L0.544434 33.5958L1.45561 32.4042ZM1.45561 40.4042L18.4556 53.4042L17.5444 54.5958L0.544434 41.5958L1.45561 40.4042Z" fill="#494949"/>
</svg>
