<svg width="11" height="11" viewBox="0 0 11 11" fill="none" xmlns="http://www.w3.org/2000/svg">
<path fill-rule="evenodd" clip-rule="evenodd" d="M3.78785 0.542481C3.61578 0.145979 3.18316 -0.0745246 2.75952 0.0229495L0.697356 0.498833C0.697301 0.498845 0.697412 0.49882 0.697356 0.498833C0.288179 0.592762 0 0.956881 0 1.37525C0 6.69585 4.31257 11 9.62477 11C10.048 11 10.4075 10.7073 10.501 10.3035L10.977 8.24075C11.0749 7.81551 10.8526 7.38457 10.4573 7.21093L10.4538 7.2094L8.23269 6.25751C7.86413 6.09956 7.43701 6.20566 7.1835 6.5151L6.41359 7.45575C5.18572 6.80588 4.18205 5.79144 3.54242 4.58433L4.48185 3.81543C4.79433 3.56222 4.89753 3.13171 4.74051 2.76534L3.78861 0.544247L3.78785 0.542481ZM3.01164 0.879328C3.01171 0.879477 3.01157 0.879178 3.01164 0.879328L3.96278 3.09866C3.97213 3.12048 3.96477 3.1454 3.94907 3.15807L3.94684 3.15987L2.49 4.35228L2.63005 4.65066C3.38541 6.26 4.70416 7.59779 6.34758 8.36807L6.64587 8.50788L7.83803 7.05134C7.85422 7.03158 7.87925 7.02662 7.89938 7.03525L10.1179 7.98606C10.1463 7.99903 10.1577 8.02798 10.1525 8.05066C10.1525 8.05069 10.1525 8.05062 10.1525 8.05066L9.67665 10.1127C9.67664 10.1127 9.67665 10.1126 9.67665 10.1127C9.67095 10.1371 9.64972 10.1539 9.62477 10.1539C4.77941 10.1539 0.84615 6.22806 0.84615 1.37525C0.84615 1.34946 0.863462 1.32885 0.886517 1.32357L2.94925 0.847552C2.94928 0.847546 2.94922 0.847559 2.94925 0.847552C2.97362 0.841993 3.00112 0.855718 3.01164 0.879328Z" fill="#696969"/>
</svg>
