<svg width="13" height="10" viewBox="0 0 13 10" fill="none" xmlns="http://www.w3.org/2000/svg">
<path d="M11.7812 0H1.21875C0.545645 0 0 0.559635 0 1.25V8.75C0 9.44036 0.545645 10 1.21875 10H11.7812C12.4544 10 13 9.44036 13 8.75V1.25C13 0.559635 12.4544 0 11.7812 0ZM11.7812 1.25V2.31263C11.2119 2.78812 10.3043 3.5275 8.364 5.08581C7.9364 5.43078 7.08937 6.25956 6.5 6.2499C5.91073 6.25966 5.06342 5.43065 4.636 5.08581C2.69598 3.52773 1.78813 2.7882 1.21875 2.31263V1.25H11.7812ZM1.21875 8.75V3.91661C1.80055 4.3919 2.62562 5.05885 3.88319 6.06885C4.43815 6.5169 5.41003 7.50599 6.5 7.49997C7.58461 7.50599 8.54417 6.53125 9.11658 6.06906C10.3741 5.05909 11.1994 4.39195 11.7812 3.91664V8.75H1.21875Z" fill="#696969"/>
</svg>
