<svg width="62" height="33" viewBox="0 0 62 33" fill="none" xmlns="http://www.w3.org/2000/svg">
<path d="M6.22958 32.0801C5.34958 32.0801 4.61892 31.7921 4.03758 31.2161C3.46158 30.6347 3.17358 29.9227 3.17358 29.0801C3.17358 28.2427 3.46425 27.5334 4.04558 26.9521C4.63225 26.3707 5.36025 26.0801 6.22958 26.0801C6.89092 26.0801 7.48292 26.2854 8.00558 26.6961C8.53358 27.1014 8.88292 27.6267 9.05358 28.2721H7.84558C7.53625 27.5414 6.97892 27.1761 6.17358 27.1761C5.65092 27.1761 5.20558 27.3627 4.83758 27.7361C4.47492 28.1041 4.29358 28.5521 4.29358 29.0801C4.29358 29.6081 4.47492 30.0587 4.83758 30.4321C5.20558 30.8001 5.65092 30.9841 6.17358 30.9841C6.93092 30.9841 7.47758 30.6347 7.81358 29.9361H9.04558C8.85892 30.5707 8.50692 31.0881 7.98958 31.4881C7.47225 31.8827 6.88558 32.0801 6.22958 32.0801Z" fill="#F0F0F0"/>
<path d="M9.42402 32.0001L11.496 26.1601H12.616L14.688 32.0001H13.528L13.176 30.9841H10.936L10.584 32.0001H9.42402ZM12.056 27.7441L11.304 29.9201H12.808L12.056 27.7441Z" fill="#F0F0F0"/>
<path d="M17.1853 32.0801C16.5399 32.0801 16.0413 31.9147 15.6893 31.5841C15.3426 31.2481 15.1693 30.7681 15.1693 30.1441H16.3373V30.2081C16.3373 30.4587 16.4146 30.6641 16.5693 30.8241C16.7239 30.9787 16.9239 31.0561 17.1693 31.0561C17.4199 31.0561 17.6146 30.9947 17.7533 30.8721C17.8919 30.7441 17.9613 30.5734 17.9613 30.3601C17.9613 30.1787 17.8786 30.0321 17.7133 29.9201C17.5533 29.8027 17.2999 29.6721 16.9533 29.5281C16.9373 29.5227 16.9239 29.5174 16.9133 29.5121C16.9026 29.5067 16.8893 29.5014 16.8733 29.4961C16.8573 29.4907 16.8439 29.4854 16.8333 29.4801C16.6413 29.3947 16.4866 29.3254 16.3693 29.2721C16.2573 29.2187 16.1186 29.1387 15.9533 29.0321C15.7933 28.9201 15.6679 28.8081 15.5773 28.6961C15.4919 28.5841 15.4146 28.4427 15.3453 28.2721C15.2759 28.0961 15.2413 27.9041 15.2413 27.6961C15.2413 27.2214 15.4119 26.8347 15.7533 26.5361C16.0946 26.2321 16.5399 26.0801 17.0893 26.0801C17.6919 26.0801 18.1613 26.2321 18.4973 26.5361C18.8386 26.8401 19.0093 27.2827 19.0093 27.8641H17.8973V27.8001C17.8973 27.3094 17.6306 27.0641 17.0973 27.0641C16.8786 27.0641 16.6999 27.1201 16.5613 27.2321C16.4279 27.3441 16.3613 27.4881 16.3613 27.6641C16.3613 27.7494 16.3853 27.8321 16.4333 27.9121C16.4813 27.9921 16.5319 28.0587 16.5853 28.1121C16.6439 28.1601 16.7373 28.2187 16.8653 28.2881C16.9933 28.3574 17.0946 28.4081 17.1693 28.4401C17.2439 28.4721 17.3666 28.5227 17.5373 28.5921C17.7666 28.6934 17.9559 28.7867 18.1053 28.8721C18.2546 28.9521 18.4146 29.0614 18.5853 29.2001C18.7559 29.3334 18.8839 29.4961 18.9693 29.6881C19.0546 29.8801 19.0973 30.0987 19.0973 30.3441C19.0973 30.8187 18.9346 31.2267 18.6093 31.5681C18.2839 31.9094 17.8093 32.0801 17.1853 32.0801Z" fill="#F0F0F0"/>
<path d="M19.5834 32.0001L21.6554 26.1601H22.7754L24.8474 32.0001H23.6874L23.3354 30.9841H21.0954L20.7434 32.0001H19.5834ZM22.2154 27.7441L21.4634 29.9201H22.9674L22.2154 27.7441Z" fill="#F0F0F0"/>
<path d="M28.0367 32.0001V26.1601H29.6287C30.5887 26.1601 31.3434 26.4347 31.8927 26.9841C32.442 27.5281 32.7167 28.2267 32.7167 29.0801C32.7167 29.9174 32.4314 30.6134 31.8607 31.1681C31.29 31.7227 30.562 32.0001 29.6767 32.0001H28.0367ZM29.5007 27.1921H29.1487V30.9681H29.5487C30.1674 30.9681 30.6634 30.7894 31.0367 30.4321C31.4154 30.0747 31.6047 29.6241 31.6047 29.0801C31.6047 28.5041 31.426 28.0454 31.0687 27.7041C30.7167 27.3627 30.194 27.1921 29.5007 27.1921Z" fill="#F0F0F0"/>
<path d="M33.633 32.0001V26.1601H34.745V32.0001H33.633Z" fill="#F0F0F0"/>
<path d="M38.182 32.0001V26.1601H39.286L41.038 28.5921L42.854 26.1601H43.902V32.0001H42.79V27.9521L41.03 30.3281L39.294 27.9761V32.0001H38.182Z" fill="#F0F0F0"/>
<path d="M49.8854 31.2081C49.3041 31.7894 48.5974 32.0801 47.7654 32.0801C46.9334 32.0801 46.2267 31.7894 45.6454 31.2081C45.0694 30.6214 44.7814 29.9121 44.7814 29.0801C44.7814 28.2481 45.0694 27.5414 45.6454 26.9601C46.2267 26.3734 46.9334 26.0801 47.7654 26.0801C48.5974 26.0801 49.3041 26.3734 49.8854 26.9601C50.4667 27.5414 50.7574 28.2481 50.7574 29.0801C50.7574 29.9121 50.4667 30.6214 49.8854 31.2081ZM46.4294 30.4321C46.7974 30.8001 47.2427 30.9841 47.7654 30.9841C48.2881 30.9841 48.7334 30.7974 49.1014 30.4241C49.4694 30.0507 49.6534 29.6027 49.6534 29.0801C49.6534 28.5574 49.4694 28.1094 49.1014 27.7361C48.7334 27.3627 48.2881 27.1761 47.7654 27.1761C47.2427 27.1761 46.7974 27.3627 46.4294 27.7361C46.0667 28.1041 45.8854 28.5521 45.8854 29.0801C45.8854 29.6081 46.0667 30.0587 46.4294 30.4321Z" fill="#F0F0F0"/>
<path d="M51.6383 32.0001V26.1601H53.2303C54.1903 26.1601 54.9449 26.4347 55.4943 26.9841C56.0436 27.5281 56.3183 28.2267 56.3183 29.0801C56.3183 29.9174 56.0329 30.6134 55.4623 31.1681C54.8916 31.7227 54.1636 32.0001 53.2783 32.0001H51.6383ZM53.1023 27.1921H52.7503V30.9681H53.1503C53.7689 30.9681 54.2649 30.7894 54.6383 30.4321C55.0169 30.0747 55.2063 29.6241 55.2063 29.0801C55.2063 28.5041 55.0276 28.0454 54.6703 27.7041C54.3183 27.3627 53.7956 27.1921 53.1023 27.1921Z" fill="#F0F0F0"/>
<path d="M56.6271 32.0001L58.6991 26.1601H59.8191L61.8911 32.0001H60.7311L60.3791 30.9841H58.1391L57.7871 32.0001H56.6271ZM59.2591 27.7441L58.5071 29.9201H60.0111L59.2591 27.7441Z" fill="#F0F0F0"/>
<path d="M14.4254 19.9425C11.8938 20.6913 9.54674 20.4846 7.38423 19.3222C5.23253 18.14 3.79815 16.3368 3.0811 13.9126C2.36859 11.5038 2.60119 9.21583 3.77889 7.04878C4.97193 4.87719 6.8189 3.42153 9.31979 2.68179C11.2223 2.11904 13.1001 2.206 14.9531 2.94265C16.817 3.65942 18.269 4.87343 19.3091 6.5847L15.8339 7.61262C14.3223 5.77386 12.4081 5.19712 10.0913 5.88241C8.58771 6.32716 7.46541 7.2431 6.72444 8.63025C5.99426 9.99751 5.85382 11.4406 6.30311 12.9596C6.7524 14.4785 7.65754 15.6207 9.01854 16.3861C10.3903 17.1316 11.828 17.282 13.3316 16.8372C15.5103 16.1928 16.7857 14.7227 17.1578 12.4268L20.702 11.3785C20.7051 13.3631 20.1326 15.1509 18.9848 16.7418C17.8323 18.3174 16.3125 19.3843 14.4254 19.9425Z" fill="#F0F0F0"/>
<path d="M32.0216 20.0003H29.8136V18.9763H29.7816C29.6856 19.115 29.5576 19.259 29.3976 19.4083C29.2483 19.547 29.0669 19.675 28.8536 19.7923C28.6509 19.9096 28.4216 20.0056 28.1656 20.0803C27.9203 20.155 27.6643 20.1923 27.3976 20.1923C26.8216 20.1923 26.2989 20.0963 25.8296 19.9043C25.3603 19.7016 24.9549 19.4243 24.6136 19.0723C24.2829 18.7096 24.0269 18.283 23.8456 17.7923C23.6643 17.3016 23.5736 16.763 23.5736 16.1763C23.5736 15.6323 23.6536 15.115 23.8136 14.6243C23.9843 14.123 24.2189 13.6803 24.5176 13.2963C24.8269 12.9123 25.2003 12.6083 25.6376 12.3843C26.0749 12.1496 26.5709 12.0323 27.1256 12.0323C27.6269 12.0323 28.0909 12.1123 28.5176 12.2723C28.9549 12.4216 29.3123 12.683 29.5896 13.0563H29.6216V7.9043H32.0216V20.0003ZM29.8136 16.1123C29.8136 15.5256 29.6429 15.051 29.3016 14.6883C28.9709 14.3256 28.5016 14.1443 27.8936 14.1443C27.2856 14.1443 26.8109 14.3256 26.4696 14.6883C26.1389 15.051 25.9736 15.5256 25.9736 16.1123C25.9736 16.699 26.1389 17.1736 26.4696 17.5363C26.8109 17.899 27.2856 18.0803 27.8936 18.0803C28.5016 18.0803 28.9709 17.899 29.3016 17.5363C29.6429 17.1736 29.8136 16.699 29.8136 16.1123Z" fill="#F0F0F0"/>
<path d="M33.9717 12.2243H36.3717V20.0003H33.9717V12.2243ZM33.7797 9.7763C33.7797 9.3923 33.9131 9.06696 34.1797 8.8003C34.4571 8.52296 34.7877 8.3843 35.1717 8.3843C35.5557 8.3843 35.8811 8.52296 36.1477 8.8003C36.4251 9.06696 36.5637 9.3923 36.5637 9.7763C36.5637 10.1603 36.4251 10.491 36.1477 10.7683C35.8811 11.035 35.5557 11.1683 35.1717 11.1683C34.7877 11.1683 34.4571 11.035 34.1797 10.7683C33.9131 10.491 33.7797 10.1603 33.7797 9.7763Z" fill="#F0F0F0"/>
<path d="M40.7416 3.00879H46.4056L50.3176 14.0968H50.3656L54.3016 3.00879H59.9416V20.0008H56.1976V6.96879H56.1496L51.6856 20.0008H48.8296L44.5336 6.96879H44.4856V20.0008H40.7416V3.00879Z" fill="#F0F0F0"/>
<path d="M13.2404 8.67676L24.2928 5.36176L35.3452 2.04676L36.7089 6.59336L14.604 13.2234L13.2404 8.67676Z" fill="#333333"/>
</svg>
