<svg width="13" height="16" viewBox="0 0 13 16" fill="none" xmlns="http://www.w3.org/2000/svg">
<path fill-rule="evenodd" clip-rule="evenodd" d="M6.5 1.5C3.71639 1.5 1.5 3.6483 1.5 6.25C1.5 6.74634 1.54511 7.12702 1.6633 7.50795C1.78282 7.89323 1.98498 8.30417 2.3296 8.85115C2.77913 9.56464 3.43644 10.4584 4.40164 11.7708C4.94445 12.5089 5.58464 13.3794 6.34002 14.4247L5.93476 14.7175L6.33953 14.424C6.37273 14.4698 6.42933 14.5 6.5 14.5C6.57058 14.5 6.62713 14.4699 6.66036 14.4242C7.41557 13.3791 8.05564 12.5088 8.59836 11.7708C9.56357 10.4584 10.2209 9.56464 10.6704 8.85115C11.015 8.30417 11.2172 7.89323 11.3367 7.50795C11.4549 7.12702 11.5 6.74634 11.5 6.25C11.5 3.6483 9.28361 1.5 6.5 1.5ZM0.5 6.25C0.5 3.05269 3.20846 0.5 6.5 0.5C9.79154 0.5 12.5 3.05269 12.5 6.25C12.5 6.81204 12.4485 7.29903 12.2918 7.80426C12.1364 8.30515 11.8853 8.79886 11.5165 9.38421C11.0481 10.1276 10.3568 11.0678 9.36895 12.4112C8.8288 13.1458 8.2 14.0009 7.4705 15.0104L7.47 15.0111C6.99722 15.663 6.00273 15.663 5.52999 15.0111L5.5295 15.0104C4.8 14.0009 4.1712 13.1458 3.63105 12.4112C2.64322 11.0678 1.95191 10.1276 1.48352 9.38421C1.11473 8.79886 0.863601 8.30515 0.708204 7.80426C0.551458 7.29903 0.5 6.81204 0.5 6.25ZM3.70833 6.25C3.70833 4.74406 4.98037 3.5625 6.5 3.5625C8.01963 3.5625 9.29167 4.74406 9.29167 6.25C9.29167 7.75594 8.01963 8.9375 6.5 8.9375C4.98037 8.9375 3.70833 7.75594 3.70833 6.25ZM6.5 4.5625C5.48831 4.5625 4.70833 5.33968 4.70833 6.25C4.70833 7.16032 5.48831 7.9375 6.5 7.9375C7.51169 7.9375 8.29167 7.16032 8.29167 6.25C8.29167 5.33968 7.51169 4.5625 6.5 4.5625Z" fill="#696969"/>
</svg>
