<svg width="62" height="33" viewBox="0 0 62 33" fill="none" xmlns="http://www.w3.org/2000/svg">
<path d="M6.22958 32.08C5.34958 32.08 4.61892 31.792 4.03758 31.216C3.46158 30.6346 3.17358 29.9226 3.17358 29.08C3.17358 28.2426 3.46425 27.5333 4.04558 26.952C4.63225 26.3706 5.36025 26.08 6.22958 26.08C6.89092 26.08 7.48292 26.2853 8.00558 26.696C8.53358 27.1013 8.88292 27.6266 9.05358 28.272H7.84558C7.53625 27.5413 6.97892 27.176 6.17358 27.176C5.65092 27.176 5.20558 27.3626 4.83758 27.736C4.47492 28.104 4.29358 28.552 4.29358 29.08C4.29358 29.608 4.47492 30.0586 4.83758 30.432C5.20558 30.8 5.65092 30.984 6.17358 30.984C6.93092 30.984 7.47758 30.6346 7.81358 29.936H9.04558C8.85892 30.5706 8.50692 31.088 7.98958 31.488C7.47225 31.8826 6.88558 32.08 6.22958 32.08Z" fill="#333333"/>
<path d="M9.42402 32L11.496 26.16H12.616L14.688 32H13.528L13.176 30.984H10.936L10.584 32H9.42402ZM12.056 27.744L11.304 29.92H12.808L12.056 27.744Z" fill="#333333"/>
<path d="M17.1853 32.08C16.5399 32.08 16.0413 31.9146 15.6893 31.584C15.3426 31.248 15.1693 30.768 15.1693 30.144H16.3373V30.208C16.3373 30.4586 16.4146 30.664 16.5693 30.824C16.7239 30.9786 16.9239 31.056 17.1693 31.056C17.4199 31.056 17.6146 30.9946 17.7533 30.872C17.8919 30.744 17.9613 30.5733 17.9613 30.36C17.9613 30.1786 17.8786 30.032 17.7133 29.92C17.5533 29.8026 17.2999 29.672 16.9533 29.528C16.9373 29.5226 16.9239 29.5173 16.9133 29.512C16.9026 29.5066 16.8893 29.5013 16.8733 29.496C16.8573 29.4906 16.8439 29.4853 16.8333 29.48C16.6413 29.3946 16.4866 29.3253 16.3693 29.272C16.2573 29.2186 16.1186 29.1386 15.9533 29.032C15.7933 28.92 15.6679 28.808 15.5773 28.696C15.4919 28.584 15.4146 28.4426 15.3453 28.272C15.2759 28.096 15.2413 27.904 15.2413 27.696C15.2413 27.2213 15.4119 26.8346 15.7533 26.536C16.0946 26.232 16.5399 26.08 17.0893 26.08C17.6919 26.08 18.1613 26.232 18.4973 26.536C18.8386 26.84 19.0093 27.2826 19.0093 27.864H17.8973V27.8C17.8973 27.3093 17.6306 27.064 17.0973 27.064C16.8786 27.064 16.6999 27.12 16.5613 27.232C16.4279 27.344 16.3613 27.488 16.3613 27.664C16.3613 27.7493 16.3853 27.832 16.4333 27.912C16.4813 27.992 16.5319 28.0586 16.5853 28.112C16.6439 28.16 16.7373 28.2186 16.8653 28.288C16.9933 28.3573 17.0946 28.408 17.1693 28.44C17.2439 28.472 17.3666 28.5226 17.5373 28.592C17.7666 28.6933 17.9559 28.7866 18.1053 28.872C18.2546 28.952 18.4146 29.0613 18.5853 29.2C18.7559 29.3333 18.8839 29.496 18.9693 29.688C19.0546 29.88 19.0973 30.0986 19.0973 30.344C19.0973 30.8186 18.9346 31.2266 18.6093 31.568C18.2839 31.9093 17.8093 32.08 17.1853 32.08Z" fill="#333333"/>
<path d="M19.5834 32L21.6554 26.16H22.7754L24.8474 32H23.6874L23.3354 30.984H21.0954L20.7434 32H19.5834ZM22.2154 27.744L21.4634 29.92H22.9674L22.2154 27.744Z" fill="#333333"/>
<path d="M28.0367 32V26.16H29.6287C30.5887 26.16 31.3434 26.4346 31.8927 26.984C32.442 27.528 32.7167 28.2266 32.7167 29.08C32.7167 29.9173 32.4314 30.6133 31.8607 31.168C31.29 31.7226 30.562 32 29.6767 32H28.0367ZM29.5007 27.192H29.1487V30.968H29.5487C30.1674 30.968 30.6634 30.7893 31.0367 30.432C31.4154 30.0746 31.6047 29.624 31.6047 29.08C31.6047 28.504 31.426 28.0453 31.0687 27.704C30.7167 27.3626 30.194 27.192 29.5007 27.192Z" fill="#333333"/>
<path d="M33.633 32V26.16H34.745V32H33.633Z" fill="#333333"/>
<path d="M38.182 32V26.16H39.286L41.038 28.592L42.854 26.16H43.902V32H42.79V27.952L41.03 30.328L39.294 27.976V32H38.182Z" fill="#333333"/>
<path d="M49.8854 31.208C49.3041 31.7893 48.5974 32.08 47.7654 32.08C46.9334 32.08 46.2267 31.7893 45.6454 31.208C45.0694 30.6213 44.7814 29.912 44.7814 29.08C44.7814 28.248 45.0694 27.5413 45.6454 26.96C46.2267 26.3733 46.9334 26.08 47.7654 26.08C48.5974 26.08 49.3041 26.3733 49.8854 26.96C50.4667 27.5413 50.7574 28.248 50.7574 29.08C50.7574 29.912 50.4667 30.6213 49.8854 31.208ZM46.4294 30.432C46.7974 30.8 47.2427 30.984 47.7654 30.984C48.2881 30.984 48.7334 30.7973 49.1014 30.424C49.4694 30.0506 49.6534 29.6026 49.6534 29.08C49.6534 28.5573 49.4694 28.1093 49.1014 27.736C48.7334 27.3626 48.2881 27.176 47.7654 27.176C47.2427 27.176 46.7974 27.3626 46.4294 27.736C46.0667 28.104 45.8854 28.552 45.8854 29.08C45.8854 29.608 46.0667 30.0586 46.4294 30.432Z" fill="#333333"/>
<path d="M51.6383 32V26.16H53.2303C54.1903 26.16 54.9449 26.4346 55.4943 26.984C56.0436 27.528 56.3183 28.2266 56.3183 29.08C56.3183 29.9173 56.0329 30.6133 55.4623 31.168C54.8916 31.7226 54.1636 32 53.2783 32H51.6383ZM53.1023 27.192H52.7503V30.968H53.1503C53.7689 30.968 54.2649 30.7893 54.6383 30.432C55.0169 30.0746 55.2063 29.624 55.2063 29.08C55.2063 28.504 55.0276 28.0453 54.6703 27.704C54.3183 27.3626 53.7956 27.192 53.1023 27.192Z" fill="#333333"/>
<path d="M56.6271 32L58.6991 26.16H59.8191L61.8911 32H60.7311L60.3791 30.984H58.1391L57.7871 32H56.6271ZM59.2591 27.744L58.5071 29.92H60.0111L59.2591 27.744Z" fill="#333333"/>
<path d="M14.4254 19.9417C11.8938 20.6906 9.54674 20.4838 7.38423 19.3214C5.23253 18.1392 3.79815 16.336 3.0811 13.9118C2.36859 11.503 2.60119 9.21503 3.77889 7.04798C4.97193 4.8764 6.8189 3.42074 9.31979 2.681C11.2223 2.11825 13.1001 2.2052 14.9531 2.94185C16.817 3.65862 18.269 4.87264 19.3091 6.5839L15.8339 7.61182C14.3223 5.77307 12.4081 5.19633 10.0913 5.88161C8.58771 6.32636 7.46541 7.24231 6.72444 8.62945C5.99426 9.99672 5.85382 11.4398 6.30311 12.9588C6.7524 14.4777 7.65754 15.6199 9.01854 16.3853C10.3903 17.1308 11.828 17.2812 13.3316 16.8364C15.5103 16.192 16.7857 14.7219 17.1578 12.426L20.702 11.3777C20.7051 13.3623 20.1326 15.1501 18.9848 16.741C17.8323 18.3166 16.3125 19.3835 14.4254 19.9417Z" fill="#333333"/>
<path d="M32.0216 20H29.8136V18.976H29.7816C29.6856 19.1147 29.5576 19.2587 29.3976 19.408C29.2483 19.5467 29.0669 19.6747 28.8536 19.792C28.6509 19.9093 28.4216 20.0053 28.1656 20.08C27.9203 20.1547 27.6643 20.192 27.3976 20.192C26.8216 20.192 26.2989 20.096 25.8296 19.904C25.3603 19.7013 24.9549 19.424 24.6136 19.072C24.2829 18.7093 24.0269 18.2827 23.8456 17.792C23.6643 17.3013 23.5736 16.7627 23.5736 16.176C23.5736 15.632 23.6536 15.1147 23.8136 14.624C23.9843 14.1227 24.2189 13.68 24.5176 13.296C24.8269 12.912 25.2003 12.608 25.6376 12.384C26.0749 12.1493 26.5709 12.032 27.1256 12.032C27.6269 12.032 28.0909 12.112 28.5176 12.272C28.9549 12.4213 29.3123 12.6827 29.5896 13.056H29.6216V7.90399H32.0216V20ZM29.8136 16.112C29.8136 15.5253 29.6429 15.0507 29.3016 14.688C28.9709 14.3253 28.5016 14.144 27.8936 14.144C27.2856 14.144 26.8109 14.3253 26.4696 14.688C26.1389 15.0507 25.9736 15.5253 25.9736 16.112C25.9736 16.6987 26.1389 17.1733 26.4696 17.536C26.8109 17.8987 27.2856 18.08 27.8936 18.08C28.5016 18.08 28.9709 17.8987 29.3016 17.536C29.6429 17.1733 29.8136 16.6987 29.8136 16.112Z" fill="#333333"/>
<path d="M33.9717 12.224H36.3717V20H33.9717V12.224ZM33.7797 9.77599C33.7797 9.39199 33.9131 9.06666 34.1797 8.79999C34.4571 8.52266 34.7877 8.38399 35.1717 8.38399C35.5557 8.38399 35.8811 8.52266 36.1477 8.79999C36.4251 9.06666 36.5637 9.39199 36.5637 9.77599C36.5637 10.16 36.4251 10.4907 36.1477 10.768C35.8811 11.0347 35.5557 11.168 35.1717 11.168C34.7877 11.168 34.4571 11.0347 34.1797 10.768C33.9131 10.4907 33.7797 10.16 33.7797 9.77599Z" fill="#333333"/>
<path d="M40.7416 3.008H46.4056L50.3176 14.096H50.3656L54.3016 3.008H59.9416V20H56.1976V6.96799H56.1496L51.6856 20H48.8296L44.5336 6.96799H44.4856V20H40.7416V3.008Z" fill="#333333"/>
<path d="M13.2404 8.67627L24.2928 5.36127L35.3452 2.04627L36.7089 6.59288L14.604 13.2229L13.2404 8.67627Z" fill="white"/>
</svg>
